<mxfile host="app.diagrams.net" modified="2024-06-11T13:13:30.346Z" agent="Mozilla/5.0 (Windows NT 10.0; Win64; x64; rv:126.0) Gecko/20100101 Firefox/126.0" version="24.5.3" etag="Wndjw-oVcPe6WqmXBQ2x" type="github">
  <diagram name="Halaman-1" id="m9TbnbMs3VMxJzf82fjN">
    <mxGraphModel>
      <root>
        <mxCell id="0" />
        <mxCell id="1" parent="0" />
      </root>
    </mxGraphModel>
  </diagram>
</mxfile>
